<?xml version="1.0" standalone="no"?>
<!DOCTYPE svg PUBLIC "-//W3C//DTD SVG 20010904//EN"
 "http://www.w3.org/TR/2001/REC-SVG-20010904/DTD/svg10.dtd">
<svg version="1.0" xmlns="http://www.w3.org/2000/svg"
 width="100.000000pt" height="100.000000pt" viewBox="0 0 100.000000 100.000000"
 preserveAspectRatio="xMidYMid meet">
<metadata>
Created by potrace 1.11, written by Peter Selinger 2001-2013
</metadata>
<g transform="translate(0.000000,100.000000) scale(0.100000,-0.100000)"
fill="#000000" stroke="none">
<path d="M744 993 c-16 -3 -24 -14 -29 -39 -8 -45 -29 -52 -66 -25 -25 19 -30
20 -35 6 -7 -17 -49 -21 -59 -5 -3 6 -13 10 -21 10 -17 0 -19 -41 -1 -60 6 -8
3 -7 -9 3 -27 22 -34 22 -34 -3 0 -11 -5 -17 -12 -15 -29 11 -108 22 -108 15
0 -4 25 -24 55 -44 35 -23 55 -43 55 -55 0 -23 -37 -38 -53 -22 -6 6 -22 11
-34 11 -18 0 -29 10 -43 43 l-20 42 2 -51 c2 -49 3 -51 31 -52 47 -1 78 -42
42 -56 -8 -3 -15 -14 -15 -25 0 -11 -4 -23 -10 -26 -18 -11 -10 -44 15 -61 15
-10 27 -30 31 -51 4 -22 14 -38 28 -43 11 -5 17 -9 11 -10 -21 -1 22 -20 47
-20 17 0 31 -8 38 -20 6 -12 21 -20 35 -20 14 0 25 -6 25 -13 0 -14 39 -41 48
-33 3 3 -2 14 -12 24 -16 18 -15 19 36 10 29 -5 80 -11 113 -13 l60 -5 -30 17
c-24 14 -26 18 -12 21 9 2 17 10 17 17 0 8 10 15 22 17 15 2 26 16 37 46 16
45 17 46 74 33 28 -7 37 -6 37 4 0 8 -9 16 -19 20 -19 6 -19 6 -1 48 25 53 25
78 2 84 -10 2 -23 18 -29 34 -11 27 -9 31 18 51 35 26 39 51 7 47 -30 -4 -48
8 -48 32 0 18 -4 20 -40 23 -12 1 -14 13 -12 59 2 31 1 57 -2 57 -6 0 -30 -76
-32 -105 -1 -11 -3 -24 -5 -30 -2 -5 9 -31 24 -56 54 -91 45 -189 -25 -265
-22 -24 -48 -44 -57 -45 -11 0 -10 -3 7 -11 31 -15 28 -34 -10 -52 -48 -24
-68 -13 -68 38 0 40 -2 43 -24 39 -50 -10 -56 6 -28 75 14 34 29 62 32 62 4 0
17 -28 30 -61 18 -50 20 -63 9 -70 -11 -7 -9 -13 9 -31 12 -12 22 -17 22 -10
0 7 -6 12 -12 12 -7 0 1 7 17 16 73 38 115 105 115 184 0 89 -48 156 -135 189
-29 11 -43 21 -36 26 7 4 35 -5 64 -19 28 -14 53 -24 54 -22 2 2 -1 16 -7 31
-7 20 -7 31 1 41 6 8 8 25 5 39 -6 25 -25 29 -82 18z m37 -157 c30 -20 38 -31
30 -39 -14 -14 -14 -54 0 -63 13 -8 7 -43 -17 -99 l-16 -40 -28 70 c-15 39
-26 73 -23 78 2 4 -14 7 -37 7 -41 0 -41 0 -26 -22 20 -28 19 -52 -3 -102
l-17 -40 -27 67 c-15 37 -27 74 -27 82 0 10 -11 15 -35 15 l-35 0 20 -50 c11
-27 29 -73 40 -100 27 -68 25 -75 -9 -51 -35 25 -71 95 -71 138 0 39 31 112
57 135 60 54 154 60 224 14z"/>
</g>
</svg>
